<mxfile host="app.diagrams.net" agent="Mozilla/5.0 (Windows NT 10.0; Win64; x64) AppleWebKit/537.36 (KHTML, like Gecko) Chrome/133.0.0.0 Safari/537.36 OPR/118.0.0.0" version="27.0.3">
  <diagram name="Strona-1" id="wmeSAG7ph0d2C2ACMFJm">
    <mxGraphModel dx="2022" dy="1126" grid="1" gridSize="10" guides="1" tooltips="1" connect="1" arrows="1" fold="1" page="1" pageScale="1" pageWidth="827" pageHeight="1169" math="0" shadow="0">
      <root>
        <mxCell id="0" />
        <mxCell id="1" parent="0" />
        <mxCell id="xW2blZYUoY2jDKq2BNtd-1" value="" style="rounded=1;whiteSpace=wrap;html=1;" vertex="1" parent="1">
          <mxGeometry x="4" width="820" height="60" as="geometry" />
        </mxCell>
        <mxCell id="xW2blZYUoY2jDKq2BNtd-2" value="" style="shape=umlDestroy;whiteSpace=wrap;html=1;strokeWidth=3;targetShapes=umlLifeline;" vertex="1" parent="1">
          <mxGeometry x="20" y="10" width="70" height="40" as="geometry" />
        </mxCell>
        <mxCell id="xW2blZYUoY2jDKq2BNtd-3" value="Paczka24" style="text;html=1;align=center;verticalAlign=middle;resizable=0;points=[];autosize=1;strokeColor=none;fillColor=none;fontStyle=1;fontSize=24;" vertex="1" parent="1">
          <mxGeometry x="110" y="10" width="130" height="40" as="geometry" />
        </mxCell>
        <mxCell id="xW2blZYUoY2jDKq2BNtd-4" value="" style="html=1;verticalLabelPosition=bottom;align=center;labelBackgroundColor=#ffffff;verticalAlign=top;strokeWidth=2;shadow=0;dashed=0;shape=mxgraph.ios7.icons.settings;" vertex="1" parent="1">
          <mxGeometry x="780" y="15" width="30" height="30" as="geometry" />
        </mxCell>
        <mxCell id="xW2blZYUoY2jDKq2BNtd-5" value="" style="html=1;verticalLabelPosition=bottom;align=center;labelBackgroundColor=#ffffff;verticalAlign=top;strokeWidth=2;shadow=0;dashed=0;shape=mxgraph.ios7.icons.most_viewed;pointerEvents=1;" vertex="1" parent="1">
          <mxGeometry x="740" y="18.600000000000023" width="28.2" height="22.8" as="geometry" />
        </mxCell>
        <mxCell id="xW2blZYUoY2jDKq2BNtd-6" value="Wyloguj" style="rounded=0;whiteSpace=wrap;html=1;" vertex="1" parent="1">
          <mxGeometry x="640" y="15" width="90" height="30" as="geometry" />
        </mxCell>
        <mxCell id="xW2blZYUoY2jDKq2BNtd-7" value="Użytkownik: X" style="text;html=1;align=center;verticalAlign=middle;resizable=0;points=[];autosize=1;strokeColor=none;fillColor=none;" vertex="1" parent="1">
          <mxGeometry x="255" y="18.599999999999994" width="100" height="30" as="geometry" />
        </mxCell>
        <mxCell id="xW2blZYUoY2jDKq2BNtd-9" value="" style="rounded=0;whiteSpace=wrap;html=1;" vertex="1" parent="1">
          <mxGeometry x="24" y="90" width="780" height="710" as="geometry" />
        </mxCell>
        <mxCell id="xW2blZYUoY2jDKq2BNtd-10" value="Data wysyłki" style="text;html=1;align=center;verticalAlign=middle;resizable=0;points=[];autosize=1;strokeColor=none;fillColor=none;" vertex="1" parent="1">
          <mxGeometry x="80" y="335" width="90" height="30" as="geometry" />
        </mxCell>
        <mxCell id="xW2blZYUoY2jDKq2BNtd-11" value="" style="rounded=0;whiteSpace=wrap;html=1;" vertex="1" parent="1">
          <mxGeometry x="60" y="305" width="130" height="30" as="geometry" />
        </mxCell>
        <mxCell id="xW2blZYUoY2jDKq2BNtd-12" value="" style="rounded=0;whiteSpace=wrap;html=1;" vertex="1" parent="1">
          <mxGeometry x="110" y="105" width="120" height="30" as="geometry" />
        </mxCell>
        <mxCell id="xW2blZYUoY2jDKq2BNtd-13" value="" style="rounded=0;whiteSpace=wrap;html=1;" vertex="1" parent="1">
          <mxGeometry x="540" y="102.5" width="120" height="35" as="geometry" />
        </mxCell>
        <mxCell id="xW2blZYUoY2jDKq2BNtd-14" value="" style="rounded=0;whiteSpace=wrap;html=1;" vertex="1" parent="1">
          <mxGeometry x="210" y="305" width="130" height="30" as="geometry" />
        </mxCell>
        <mxCell id="xW2blZYUoY2jDKq2BNtd-16" value="Data wymagana" style="text;html=1;align=center;verticalAlign=middle;resizable=0;points=[];autosize=1;strokeColor=none;fillColor=none;" vertex="1" parent="1">
          <mxGeometry x="220" y="335" width="110" height="30" as="geometry" />
        </mxCell>
        <mxCell id="xW2blZYUoY2jDKq2BNtd-17" value="Faktura dla:" style="text;html=1;align=center;verticalAlign=middle;resizable=0;points=[];autosize=1;strokeColor=none;fillColor=none;" vertex="1" parent="1">
          <mxGeometry x="24" y="105" width="90" height="30" as="geometry" />
        </mxCell>
        <mxCell id="xW2blZYUoY2jDKq2BNtd-18" value="Wysyłka do:" style="text;html=1;align=center;verticalAlign=middle;resizable=0;points=[];autosize=1;strokeColor=none;fillColor=none;" vertex="1" parent="1">
          <mxGeometry x="450" y="107.5" width="90" height="30" as="geometry" />
        </mxCell>
        <mxCell id="xW2blZYUoY2jDKq2BNtd-19" value="" style="rounded=0;whiteSpace=wrap;html=1;" vertex="1" parent="1">
          <mxGeometry x="60" y="380" width="130" height="30" as="geometry" />
        </mxCell>
        <mxCell id="xW2blZYUoY2jDKq2BNtd-20" value="" style="rounded=0;whiteSpace=wrap;html=1;" vertex="1" parent="1">
          <mxGeometry x="210" y="380" width="130" height="30" as="geometry" />
        </mxCell>
        <mxCell id="xW2blZYUoY2jDKq2BNtd-21" value="Waga" style="text;html=1;align=center;verticalAlign=middle;resizable=0;points=[];autosize=1;strokeColor=none;fillColor=none;" vertex="1" parent="1">
          <mxGeometry x="100" y="410" width="50" height="30" as="geometry" />
        </mxCell>
        <mxCell id="xW2blZYUoY2jDKq2BNtd-22" value="Id zamówienia" style="text;html=1;align=center;verticalAlign=middle;resizable=0;points=[];autosize=1;strokeColor=none;fillColor=none;" vertex="1" parent="1">
          <mxGeometry x="225" y="410" width="100" height="30" as="geometry" />
        </mxCell>
        <mxCell id="xW2blZYUoY2jDKq2BNtd-23" value="" style="ellipse;whiteSpace=wrap;html=1;aspect=fixed;" vertex="1" parent="1">
          <mxGeometry x="608.2" y="345" width="20" height="20" as="geometry" />
        </mxCell>
        <mxCell id="xW2blZYUoY2jDKq2BNtd-28" value="Rodzaj zamówienia:" style="text;html=1;align=center;verticalAlign=middle;resizable=0;points=[];autosize=1;strokeColor=none;fillColor=none;" vertex="1" parent="1">
          <mxGeometry x="638.2" y="305" width="130" height="30" as="geometry" />
        </mxCell>
        <mxCell id="xW2blZYUoY2jDKq2BNtd-29" value="" style="ellipse;whiteSpace=wrap;html=1;aspect=fixed;" vertex="1" parent="1">
          <mxGeometry x="608.2" y="385" width="20" height="20" as="geometry" />
        </mxCell>
        <mxCell id="xW2blZYUoY2jDKq2BNtd-30" value="" style="ellipse;whiteSpace=wrap;html=1;aspect=fixed;" vertex="1" parent="1">
          <mxGeometry x="608.2" y="425" width="20" height="20" as="geometry" />
        </mxCell>
        <mxCell id="xW2blZYUoY2jDKq2BNtd-31" value="Ekspresowa" style="text;html=1;align=center;verticalAlign=middle;resizable=0;points=[];autosize=1;strokeColor=none;fillColor=none;" vertex="1" parent="1">
          <mxGeometry x="628.2" y="340" width="90" height="30" as="geometry" />
        </mxCell>
        <mxCell id="xW2blZYUoY2jDKq2BNtd-32" value="Ekonomiczna" style="text;html=1;align=center;verticalAlign=middle;resizable=0;points=[];autosize=1;strokeColor=none;fillColor=none;" vertex="1" parent="1">
          <mxGeometry x="628.2" y="420" width="100" height="30" as="geometry" />
        </mxCell>
        <mxCell id="xW2blZYUoY2jDKq2BNtd-33" value="Zwyczajna" style="text;html=1;align=center;verticalAlign=middle;resizable=0;points=[];autosize=1;strokeColor=none;fillColor=none;" vertex="1" parent="1">
          <mxGeometry x="628.2" y="380" width="80" height="30" as="geometry" />
        </mxCell>
        <mxCell id="xW2blZYUoY2jDKq2BNtd-34" value="" style="rounded=0;whiteSpace=wrap;html=1;" vertex="1" parent="1">
          <mxGeometry x="40" y="150" width="120" height="30" as="geometry" />
        </mxCell>
        <mxCell id="xW2blZYUoY2jDKq2BNtd-35" value="" style="rounded=0;whiteSpace=wrap;html=1;" vertex="1" parent="1">
          <mxGeometry x="190" y="150" width="120" height="30" as="geometry" />
        </mxCell>
        <mxCell id="xW2blZYUoY2jDKq2BNtd-36" value="" style="rounded=0;whiteSpace=wrap;html=1;" vertex="1" parent="1">
          <mxGeometry x="40" y="220" width="120" height="30" as="geometry" />
        </mxCell>
        <mxCell id="xW2blZYUoY2jDKq2BNtd-37" value="" style="rounded=0;whiteSpace=wrap;html=1;" vertex="1" parent="1">
          <mxGeometry x="190" y="220" width="120" height="30" as="geometry" />
        </mxCell>
        <mxCell id="xW2blZYUoY2jDKq2BNtd-38" value="Miasto" style="text;html=1;align=center;verticalAlign=middle;resizable=0;points=[];autosize=1;strokeColor=none;fillColor=none;" vertex="1" parent="1">
          <mxGeometry x="70" y="180" width="60" height="30" as="geometry" />
        </mxCell>
        <mxCell id="xW2blZYUoY2jDKq2BNtd-39" value="Województwo" style="text;html=1;align=center;verticalAlign=middle;resizable=0;points=[];autosize=1;strokeColor=none;fillColor=none;" vertex="1" parent="1">
          <mxGeometry x="200" y="180" width="100" height="30" as="geometry" />
        </mxCell>
        <mxCell id="xW2blZYUoY2jDKq2BNtd-40" value="Kod Pocztowy" style="text;html=1;align=center;verticalAlign=middle;resizable=0;points=[];autosize=1;strokeColor=none;fillColor=none;" vertex="1" parent="1">
          <mxGeometry x="50" y="250" width="100" height="30" as="geometry" />
        </mxCell>
        <mxCell id="xW2blZYUoY2jDKq2BNtd-41" value="Nr domu / mieszkania" style="text;html=1;align=center;verticalAlign=middle;resizable=0;points=[];autosize=1;strokeColor=none;fillColor=none;" vertex="1" parent="1">
          <mxGeometry x="180" y="250" width="140" height="30" as="geometry" />
        </mxCell>
        <mxCell id="xW2blZYUoY2jDKq2BNtd-42" value="" style="rounded=0;whiteSpace=wrap;html=1;" vertex="1" parent="1">
          <mxGeometry x="460" y="150" width="120" height="30" as="geometry" />
        </mxCell>
        <mxCell id="xW2blZYUoY2jDKq2BNtd-43" value="" style="rounded=0;whiteSpace=wrap;html=1;" vertex="1" parent="1">
          <mxGeometry x="610" y="150" width="120" height="30" as="geometry" />
        </mxCell>
        <mxCell id="xW2blZYUoY2jDKq2BNtd-44" value="" style="rounded=0;whiteSpace=wrap;html=1;" vertex="1" parent="1">
          <mxGeometry x="460" y="220" width="120" height="30" as="geometry" />
        </mxCell>
        <mxCell id="xW2blZYUoY2jDKq2BNtd-45" value="" style="rounded=0;whiteSpace=wrap;html=1;" vertex="1" parent="1">
          <mxGeometry x="610" y="220" width="120" height="30" as="geometry" />
        </mxCell>
        <mxCell id="xW2blZYUoY2jDKq2BNtd-46" value="Miasto" style="text;html=1;align=center;verticalAlign=middle;resizable=0;points=[];autosize=1;strokeColor=none;fillColor=none;" vertex="1" parent="1">
          <mxGeometry x="490" y="180" width="60" height="30" as="geometry" />
        </mxCell>
        <mxCell id="xW2blZYUoY2jDKq2BNtd-47" value="Województwo" style="text;html=1;align=center;verticalAlign=middle;resizable=0;points=[];autosize=1;strokeColor=none;fillColor=none;" vertex="1" parent="1">
          <mxGeometry x="620" y="180" width="100" height="30" as="geometry" />
        </mxCell>
        <mxCell id="xW2blZYUoY2jDKq2BNtd-48" value="Kod Pocztowy" style="text;html=1;align=center;verticalAlign=middle;resizable=0;points=[];autosize=1;strokeColor=none;fillColor=none;" vertex="1" parent="1">
          <mxGeometry x="470" y="250" width="100" height="30" as="geometry" />
        </mxCell>
        <mxCell id="xW2blZYUoY2jDKq2BNtd-49" value="Nr domu / mieszkania" style="text;html=1;align=center;verticalAlign=middle;resizable=0;points=[];autosize=1;strokeColor=none;fillColor=none;" vertex="1" parent="1">
          <mxGeometry x="600" y="250" width="140" height="30" as="geometry" />
        </mxCell>
        <mxCell id="xW2blZYUoY2jDKq2BNtd-56" value="" style="rounded=0;whiteSpace=wrap;html=1;" vertex="1" parent="1">
          <mxGeometry x="70" y="530" width="690" height="120" as="geometry" />
        </mxCell>
        <mxCell id="xW2blZYUoY2jDKq2BNtd-57" value="" style="rounded=0;whiteSpace=wrap;html=1;" vertex="1" parent="1">
          <mxGeometry x="70" y="530" width="690" height="40" as="geometry" />
        </mxCell>
        <mxCell id="xW2blZYUoY2jDKq2BNtd-58" value="" style="rounded=0;whiteSpace=wrap;html=1;" vertex="1" parent="1">
          <mxGeometry x="70" y="570" width="690" height="40" as="geometry" />
        </mxCell>
        <mxCell id="xW2blZYUoY2jDKq2BNtd-59" value="" style="rounded=0;whiteSpace=wrap;html=1;" vertex="1" parent="1">
          <mxGeometry x="70" y="610" width="690" height="40" as="geometry" />
        </mxCell>
        <mxCell id="xW2blZYUoY2jDKq2BNtd-60" value="Produkt" style="text;html=1;align=center;verticalAlign=middle;resizable=0;points=[];autosize=1;strokeColor=none;fillColor=none;" vertex="1" parent="1">
          <mxGeometry x="160" y="490" width="60" height="30" as="geometry" />
        </mxCell>
        <mxCell id="xW2blZYUoY2jDKq2BNtd-61" value="Cena" style="text;html=1;align=center;verticalAlign=middle;resizable=0;points=[];autosize=1;strokeColor=none;fillColor=none;" vertex="1" parent="1">
          <mxGeometry x="390" y="490" width="50" height="30" as="geometry" />
        </mxCell>
        <mxCell id="xW2blZYUoY2jDKq2BNtd-62" value="Podatek" style="text;html=1;align=center;verticalAlign=middle;resizable=0;points=[];autosize=1;strokeColor=none;fillColor=none;" vertex="1" parent="1">
          <mxGeometry x="504.1" y="490" width="70" height="30" as="geometry" />
        </mxCell>
        <mxCell id="xW2blZYUoY2jDKq2BNtd-63" value="Cena końcowa:" style="text;html=1;align=center;verticalAlign=middle;resizable=0;points=[];autosize=1;strokeColor=none;fillColor=none;" vertex="1" parent="1">
          <mxGeometry x="623.2" y="490" width="110" height="30" as="geometry" />
        </mxCell>
        <mxCell id="xW2blZYUoY2jDKq2BNtd-64" value="" style="rounded=0;whiteSpace=wrap;html=1;" vertex="1" parent="1">
          <mxGeometry x="70" y="530" width="270" height="40" as="geometry" />
        </mxCell>
        <mxCell id="xW2blZYUoY2jDKq2BNtd-65" value="" style="rounded=0;whiteSpace=wrap;html=1;" vertex="1" parent="1">
          <mxGeometry x="340" y="530" width="150" height="40" as="geometry" />
        </mxCell>
        <mxCell id="xW2blZYUoY2jDKq2BNtd-66" value="" style="rounded=0;whiteSpace=wrap;html=1;" vertex="1" parent="1">
          <mxGeometry x="488.2" y="530" width="101.8" height="40" as="geometry" />
        </mxCell>
        <mxCell id="xW2blZYUoY2jDKq2BNtd-67" value="Razem:" style="text;html=1;align=center;verticalAlign=middle;resizable=0;points=[];autosize=1;strokeColor=none;fillColor=none;" vertex="1" parent="1">
          <mxGeometry x="520" y="660" width="60" height="30" as="geometry" />
        </mxCell>
        <mxCell id="xW2blZYUoY2jDKq2BNtd-68" value="Prześlij formularz i wydrukuj potwierdzenie" style="rounded=0;whiteSpace=wrap;html=1;" vertex="1" parent="1">
          <mxGeometry x="588.2" y="740" width="201.8" height="40" as="geometry" />
        </mxCell>
        <mxCell id="xW2blZYUoY2jDKq2BNtd-69" value="Wyczyść formularz" style="rounded=0;whiteSpace=wrap;html=1;" vertex="1" parent="1">
          <mxGeometry x="410" y="740" width="160" height="40" as="geometry" />
        </mxCell>
        <mxCell id="xW2blZYUoY2jDKq2BNtd-70" value="X" style="text;html=1;align=center;verticalAlign=middle;resizable=0;points=[];autosize=1;strokeColor=none;fillColor=none;" vertex="1" parent="1">
          <mxGeometry x="593.2" y="660" width="30" height="30" as="geometry" />
        </mxCell>
        <mxCell id="xW2blZYUoY2jDKq2BNtd-71" value="Zarządzaj przesyłkami" style="rounded=0;whiteSpace=wrap;html=1;" vertex="1" parent="1">
          <mxGeometry x="24" y="840" width="786" height="60" as="geometry" />
        </mxCell>
      </root>
    </mxGraphModel>
  </diagram>
</mxfile>
